<svg width="1920" height="1080" viewBox="0 0 1920 1080" fill="none" xmlns="http://www.w3.org/2000/svg">
<g clip-path="url(#clip0_387_7)">
<path d="M1493.3 420.75L1533 513.5H1332L1367.68 420.75H1493.3ZM1357.12 540C1343.31 540 1332 551.925 1332 566.5C1332 581.075 1343.31 593 1357.12 593C1370.94 593 1382.25 581.075 1382.25 566.5C1382.25 551.925 1370.94 540 1357.12 540ZM1507.88 540C1494.06 540 1482.75 551.925 1482.75 566.5C1482.75 581.075 1494.06 593 1507.88 593C1521.69 593 1533 581.075 1533 566.5C1533 551.925 1521.69 540 1507.88 540ZM1658.62 354.5V513.5C1658.62 660.575 1562.14 798.11 1432.5 831.5C1302.86 798.11 1206.38 660.575 1206.38 513.5V354.5L1432.5 248.5L1658.62 354.5ZM1583.25 540L1528.98 407.5C1523.96 392.13 1509.89 381 1493.3 381H1367.68C1351.1 381 1337.02 392.13 1332 407.5L1281.75 540V646C1281.75 660.575 1293.06 672.5 1306.88 672.5H1332C1345.82 672.5 1357.12 660.575 1357.12 646V619.5H1507.88V646C1507.88 660.575 1519.18 672.5 1533 672.5H1558.12C1571.94 672.5 1583.25 660.575 1583.25 646V540Z" fill="#FA6363" fill-opacity="0.6"/>
</g>
<defs>
<clipPath id="clip0_387_7">
<rect width="1920" height="1080" fill="white"/>
</clipPath>
</defs>
</svg>
