<svg width="1920" height="1080" viewBox="0 0 1920 1080" fill="none" xmlns="http://www.w3.org/2000/svg">
<g clip-path="url(#clip0_387_2)">
<path d="M341.875 301.5V248.5H392.125V301.5H542.875V248.5H593.125V301.5H693.625C700.289 301.5 706.679 304.292 711.391 309.262C716.103 314.231 718.75 320.972 718.75 328V460.5H668.5V354.5H593.125V407.5H542.875V354.5H392.125V407.5H341.875V354.5H266.5V725.5H417.25V778.5H241.375C234.711 778.5 228.321 775.708 223.609 770.738C218.897 765.769 216.25 759.028 216.25 752V328C216.25 320.972 218.897 314.231 223.609 309.262C228.321 304.292 234.711 301.5 241.375 301.5H341.875ZM593.125 540C566.471 540 540.908 551.168 522.061 571.047C503.213 590.926 492.625 617.887 492.625 646C492.625 674.113 503.213 701.074 522.061 720.953C540.908 740.832 566.471 752 593.125 752C619.779 752 645.342 740.832 664.189 720.953C683.037 701.074 693.625 674.113 693.625 646C693.625 617.887 683.037 590.926 664.189 571.047C645.342 551.168 619.779 540 593.125 540ZM442.375 646C442.375 625.12 446.274 604.444 453.85 585.153C461.426 565.863 472.53 548.335 486.529 533.57C500.527 518.806 517.146 507.094 535.435 499.103C553.725 491.113 573.328 487 593.125 487C612.922 487 632.525 491.113 650.815 499.103C669.104 507.094 685.723 518.806 699.721 533.57C713.72 548.335 724.824 565.863 732.4 585.153C739.976 604.444 743.875 625.12 743.875 646C743.875 688.169 727.992 728.612 699.721 758.43C671.45 788.248 633.106 805 593.125 805C553.144 805 514.8 788.248 486.529 758.43C458.258 728.612 442.375 688.169 442.375 646ZM568 566.5V656.971L625.612 717.736L661.138 680.264L618.25 635.029V566.5H568Z" fill="#FA6363" fill-opacity="0.6"/>
</g>
<defs>
<clipPath id="clip0_387_2">
<rect width="1920" height="1080" fill="white"/>
</clipPath>
</defs>
</svg>
